<?xml version="1.0" standalone="no"?>
<!DOCTYPE svg PUBLIC "-//W3C//DTD SVG 20010904//EN"
 "http://www.w3.org/TR/2001/REC-SVG-20010904/DTD/svg10.dtd">
<svg version="1.0" xmlns="http://www.w3.org/2000/svg"
 width="1000.000000pt" height="1000.000000pt" viewBox="0 0 1000.000000 1000.000000"
 preserveAspectRatio="xMidYMid meet">
<metadata>
Created by potrace 1.11, written by Peter Selinger 2001-2013
</metadata>
<g transform="translate(0.000000,1000.000000) scale(0.100000,-0.100000)"
fill="#000000" stroke="none">
<path d="M4250 9831 c-98 -32 -166 -98 -196 -189 -16 -47 -19 -86 -18 -227 1
-208 13 -284 134 -905 112 -577 182 -952 260 -1410 96 -559 133 -722 355
-1535 253 -929 415 -1388 725 -2050 240 -512 299 -651 411 -957 126 -346 207
-618 358 -1198 54 -212 116 -437 136 -500 66 -204 142 -337 216 -375 47 -25
137 -19 200 12 72 36 168 133 205 208 26 53 29 73 33 171 3 96 -1 127 -24 219
-77 307 -351 915 -1078 2389 -295 596 -371 758 -403 855 -15 47 -15 53 0 76
25 39 62 33 110 -18 23 -23 102 -126 176 -227 482 -663 738 -978 1110 -1365
206 -214 283 -309 415 -510 124 -188 191 -307 355 -626 151 -295 197 -365 266
-405 40 -23 53 -26 108 -22 209 17 416 273 416 513 0 206 -125 452 -388 765
-219 258 -866 900 -1177 1166 -303 259 -460 427 -654 699 -136 190 -171 245
-225 353 -95 191 -125 326 -133 597 -6 219 5 368 57 812 71 606 80 816 87
2173 l5 1145 -21 65 c-27 78 -78 159 -123 194 -19 14 -61 38 -93 53 -55 26
-70 28 -181 28 -114 0 -123 -2 -180 -30 -127 -65 -164 -210 -134 -516 6 -57
35 -266 65 -464 100 -668 123 -908 132 -1340 12 -640 -73 -1398 -170 -1511
-42 -49 -102 -28 -134 46 -72 172 -174 752 -378 2152 -164 1129 -219 1382
-344 1575 -53 82 -108 116 -191 120 -36 1 -76 -1 -90 -6z"/>
<path d="M6537 9591 c-125 -26 -156 -127 -137 -459 5 -103 15 -268 21 -367 16
-267 14 -677 -5 -960 -57 -866 -108 -1501 -163 -2035 -55 -541 -55 -613 4
-789 72 -216 167 -335 443 -556 230 -184 415 -352 625 -566 283 -288 454 -496
788 -959 285 -395 404 -528 530 -590 158 -77 340 -36 488 110 82 82 112 142
117 235 10 186 -129 394 -543 810 -303 305 -644 568 -1185 915 -235 150 -320
212 -401 293 -168 166 -290 407 -349 692 -63 301 -86 552 -70 784 27 409 103
801 379 1951 141 589 167 737 158 900 -8 154 -56 257 -175 375 -152 151 -380
245 -525 216z"/>
<path d="M3118 9551 c-110 -36 -179 -98 -229 -206 -52 -111 -62 -183 -56 -430
14 -596 169 -1630 387 -2575 252 -1092 392 -1565 937 -3150 118 -344 295 -863
393 -1155 256 -764 441 -1248 548 -1436 135 -235 296 -364 522 -419 230 -55
384 -3 456 152 28 62 29 67 29 228 -1 136 -6 192 -28 315 -129 707 -491 1743
-967 2769 -222 479 -334 783 -474 1286 -159 573 -334 1448 -601 3005 -125 729
-194 1008 -315 1261 -84 179 -170 283 -281 340 -47 25 -67 28 -159 31 -82 2
-118 -1 -162 -16z m295 -1075 c66 -27 113 -106 151 -252 8 -33 36 -185 61
-338 49 -299 64 -371 125 -596 22 -80 98 -404 170 -720 249 -1093 368 -1573
504 -2020 82 -272 110 -348 299 -825 571 -1435 785 -2070 789 -2335 2 -84 -9
-113 -52 -135 -68 -35 -155 -4 -221 78 -93 117 -158 275 -364 887 -84 250
-259 754 -388 1120 -500 1418 -710 2107 -926 3045 -110 480 -218 1047 -272
1440 -30 216 -33 516 -6 588 29 73 65 91 130 63z"/>
<path d="M2188 8941 c-97 -38 -269 -171 -367 -285 -107 -124 -221 -331 -260
-475 -139 -504 125 -1910 744 -3966 251 -836 731 -2300 862 -2630 270 -684
531 -1004 948 -1164 180 -70 368 -94 477 -62 64 18 120 69 148 133 20 45 24
69 23 158 -1 237 -82 495 -410 1310 -192 476 -508 1290 -700 1800 -487 1292
-720 2073 -857 2871 -52 300 -81 529 -121 954 -80 855 -132 1124 -252 1298
-53 76 -135 97 -235 58z m-4 -1292 c80 -63 125 -258 176 -769 17 -162 42 -365
56 -450 126 -768 468 -1896 1026 -3390 180 -485 259 -672 428 -1020 76 -157
154 -328 173 -380 98 -264 61 -342 -120 -256 -279 133 -557 658 -924 1746
-454 1346 -759 2399 -977 3380 -88 392 -105 502 -105 660 -1 187 30 303 107
408 38 52 91 91 122 92 6 0 23 -9 38 -21z"/>
<path d="M7662 8835 c-61 -69 -95 -176 -178 -555 -82 -380 -116 -525 -219
-955 -150 -624 -185 -814 -206 -1130 -39 -594 91 -955 486 -1350 178 -179 259
-236 659 -466 319 -184 564 -410 903 -834 211 -264 273 -300 354 -207 63 71
99 187 99 317 0 176 -68 270 -395 545 -204 171 -422 384 -538 525 -266 324
-477 747 -549 1105 -19 96 -23 145 -22 300 0 206 9 260 84 519 92 319 170 508
351 851 138 262 164 323 180 418 21 130 -30 289 -128 393 -90 97 -155 112
-212 50 -110 -119 -220 -417 -391 -1056 -165 -621 -200 -798 -207 -1067 -10
-326 27 -479 215 -889 43 -96 84 -189 91 -208 24 -73 5 -124 -50 -136 -73 -16
-263 123 -380 277 -156 207 -219 434 -219 793 0 480 97 936 346 1638 127 356
200 583 214 663 7 39 11 112 8 165 -5 104 -28 164 -90 235 -87 99 -155 118
-206 59z"/>
<path d="M8857 7620 c-14 -16 -36 -56 -48 -87 -20 -50 -23 -77 -24 -188 0
-128 1 -131 33 -193 18 -34 79 -120 136 -190 227 -280 386 -551 455 -777 30
-98 28 -149 -8 -186 -16 -16 -40 -29 -54 -29 -39 0 -135 54 -247 140 -411 315
-498 375 -591 405 -73 24 -119 17 -146 -23 -90 -135 29 -652 262 -1127 196
-401 582 -787 992 -993 170 -86 223 -63 223 95 -1 121 -54 195 -217 299 -259
165 -342 231 -456 361 -143 164 -261 363 -323 548 -45 137 -44 190 7 208 25 8
47 -10 230 -180 257 -240 481 -412 662 -508 108 -58 136 -58 155 0 55 162 -97
795 -341 1416 -293 746 -577 1155 -700 1009z"/>
<path d="M919 7563 c-91 -105 -179 -407 -179 -620 0 -184 38 -345 200 -838
283 -862 420 -1453 355 -1525 -56 -62 -133 16 -273 278 -152 284 -388 853
-602 1453 -56 154 -106 259 -124 259 -64 0 -167 -517 -196 -980 -32 -517 16
-1171 116 -1604 133 -578 368 -1192 599 -1564 65 -107 247 -359 353 -491 263
-326 457 -454 611 -400 39 14 51 35 51 94 0 91 -56 204 -325 650 -239 398
-359 619 -475 875 -257 568 -440 1197 -381 1308 6 12 24 25 38 28 51 13 120
-80 530 -711 227 -350 331 -532 513 -896 186 -370 303 -651 500 -1193 119
-329 156 -414 226 -512 111 -157 427 -316 524 -264 31 16 42 77 30 161 -23
163 -100 404 -315 984 -562 1518 -611 1657 -720 2027 -103 349 -169 627 -290
1228 -149 740 -247 1150 -375 1573 -131 437 -263 717 -338 717 -11 0 -35 -17
-53 -37z"/>
</g>
</svg>
