<?xml version="1.0" encoding="utf-8"?>
<!-- Generator: Adobe Illustrator 24.2.1, SVG Export Plug-In . SVG Version: 6.00 Build 0)  -->
<svg version="1.1" id="Layer_1" xmlns="http://www.w3.org/2000/svg" xmlns:xlink="http://www.w3.org/1999/xlink" x="0px" y="0px"
	 viewBox="0 0 206.31 30.38" style="enable-background:new 0 0 206.31 30.38;" xml:space="preserve">
<style type="text/css">
	.st0{fill:#FFFFFF;}
</style>
<g>
	<path class="st0" d="M0,0.76C0,0.34,0.38,0,0.8,0h1.05l17.55,18.65h0.04V1.22c0-0.42,0.34-0.8,0.8-0.8h3.88
		c0.42,0,0.8,0.38,0.8,0.8v28.4c0,0.42-0.38,0.76-0.8,0.76h-1.01L5.49,11.01H5.44v18.14c0,0.42-0.34,0.8-0.8,0.8H0.8
		c-0.42,0-0.8-0.38-0.8-0.8V0.76z"/>
	<path class="st0" d="M46.37,0c8.44,0,15.19,6.79,15.19,15.23s-6.75,15.15-15.19,15.15s-15.15-6.71-15.15-15.15S37.93,0,46.37,0z
		 M46.37,24.89c5.32,0,9.71-4.35,9.71-9.66c0-5.32-4.39-9.75-9.71-9.75s-9.66,4.43-9.66,9.75C36.71,20.55,41.05,24.89,46.37,24.89z"
		/>
	<path class="st0" d="M81.47,0c8.44,0,15.19,6.79,15.19,15.23s-6.75,15.15-15.19,15.15s-15.15-6.71-15.15-15.15S73.03,0,81.47,0z
		 M81.47,24.89c5.32,0,9.71-4.35,9.71-9.66c0-5.32-4.39-9.75-9.71-9.75c-5.32,0-9.66,4.43-9.66,9.75
		C71.81,20.55,76.15,24.89,81.47,24.89z"/>
	<path class="st0" d="M102.73,1.43c0-0.55,0.42-1.01,1.01-1.01h3.71c0.55,0,1.01,0.46,1.01,1.01v11.39L119.1,0.84
		c0.17-0.21,0.42-0.42,0.8-0.42h4.22c0.8,0,1.22,0.89,0.68,1.52l-11.01,12.41l11.82,14.14c0.42,0.55,0.08,1.48-0.76,1.48h-4.6
		c-0.42,0-0.68-0.17-0.76-0.3l-11.01-13.59v12.87c0,0.55-0.46,1.01-1.01,1.01h-3.71c-0.59,0-1.01-0.46-1.01-1.01V1.43z"/>
	<path class="st0" d="M133.14,1.22c0-0.42,0.34-0.8,0.8-0.8h3.88c0.42,0,0.8,0.38,0.8,0.8v23.67h10.76c0.46,0,0.8,0.38,0.8,0.8v3.46
		c0,0.42-0.34,0.8-0.8,0.8h-15.44c-0.46,0-0.8-0.38-0.8-0.8V1.22z"/>
	<path class="st0" d="M159.94,15.74l-9.62-14.09c-0.34-0.55,0-1.22,0.68-1.22h4.3c0.34,0,0.55,0.21,0.68,0.38l6.75,9.71l6.75-9.71
		c0.13-0.17,0.34-0.38,0.68-0.38h4.35c0.68,0,1.01,0.68,0.68,1.22l-9.75,14.05v13.46c0,0.42-0.38,0.8-0.8,0.8h-3.88
		c-0.46,0-0.8-0.38-0.8-0.8V15.74z"/>
	<path class="st0" d="M181.37,0.76c0-0.42,0.38-0.76,0.8-0.76h1.05l17.55,18.65h0.04V1.22c0-0.42,0.34-0.8,0.8-0.8h3.88
		c0.42,0,0.8,0.38,0.8,0.8v28.4c0,0.42-0.38,0.76-0.8,0.76h-1.01l-17.64-19.37h-0.04v18.14c0,0.42-0.34,0.8-0.8,0.8h-3.84
		c-0.42,0-0.8-0.38-0.8-0.8V0.76z"/>
</g>
</svg>
