<?xml version="1.0" standalone="no"?>
<!DOCTYPE svg PUBLIC "-//W3C//DTD SVG 20010904//EN"
 "http://www.w3.org/TR/2001/REC-SVG-20010904/DTD/svg10.dtd">
<svg version="1.0" xmlns="http://www.w3.org/2000/svg"
 width="339.000000pt" height="339.000000pt" viewBox="0 0 339.000000 339.000000"
 preserveAspectRatio="xMidYMid meet">
<metadata>
Created by potrace 1.11, written by Peter Selinger 2001-2013
</metadata>
<g transform="translate(0.000000,339.000000) scale(0.100000,-0.100000)"
fill="#000000" stroke="none">
<path d="M1841 3073 c-30 -15 -43 -36 -95 -145 -34 -70 -63 -128 -66 -128 -3
0 -28 48 -55 107 -27 59 -60 119 -73 134 -59 70 -179 35 -196 -57 -7 -36 6
-69 144 -357 36 -75 41 -92 32 -113 -10 -21 -83 -146 -382 -654 -53 -91 -184
-313 -290 -495 -106 -181 -203 -346 -215 -366 -122 -191 -17 -402 271 -547 59
-30 264 -105 264 -97 0 2 12 0 28 -5 146 -50 585 -70 782 -36 14 3 43 7 65 11
186 27 402 107 530 195 66 46 140 126 171 188 24 48 29 69 29 132 l0 75 -96
165 c-88 153 -292 500 -497 850 -265 452 -362 620 -362 628 0 5 19 47 41 93
102 206 139 292 139 320 0 42 -25 86 -60 104 -37 19 -67 19 -109 -2z m19
-1038 c90 -154 196 -335 237 -403 40 -68 73 -126 73 -129 0 -3 11 -21 25 -39
14 -18 25 -35 25 -38 0 -4 77 -137 171 -296 127 -217 169 -296 164 -311 -13
-39 -105 -116 -188 -156 -90 -44 -224 -89 -235 -78 -4 3 -84 137 -177 297 -94
160 -182 300 -195 310 -34 25 -80 29 -118 11 -29 -14 -70 -72 -142 -198 -76
-134 -235 -403 -246 -414 -28 -31 -292 82 -371 159 -76 74 -79 62 94 355 149
253 419 713 457 778 10 17 39 68 66 112 26 44 80 135 120 203 39 68 73 122 74
120 2 -2 76 -129 166 -283z m-71 -1331 c50 -85 91 -158 91 -162 0 -10 -17 -11
-190 -11 -157 -1 -173 0 -179 13 -5 9 170 316 181 316 3 0 47 -70 97 -156z"/>
</g>
</svg>
